# xmcd
#
# Track frame offsets: 
#        150
#        21762
#        43311
#        65682
#        82239
#        112509
#        126475
#        144043
#        158704
#
# Disc length: 2481 seconds
#
# Revision: 0
# Processed by: cddbd v1.5.2PL0 Copyright (c) Steve Scherf et al.
# Submitted via: ExactAudioCopy v0.99pb4
#
DISCID=7509af09
DTITLE=JJ Cale - 2009-04-07 Triple Door, Seattle, WA
DYEAR=2009
DGENRE=Blues
TTITLE0=jjcale2009-04-07d1t01
TTITLE1=jjcale2009-04-07d1t02
TTITLE2=jjcale2009-04-07d1t03
TTITLE3=jjcale2009-04-07d1t04
TTITLE4=jjcale2009-04-07d1t05
TTITLE5=jjcale2009-04-07d1t06
TTITLE6=jjcale2009-04-07d1t07
TTITLE7=jjcale2009-04-07d1t08
TTITLE8=jjcale2009-04-07d1t09
EXTD=
EXTT0=
EXTT1=
EXTT2=
EXTT3=
EXTT4=
EXTT5=
EXTT6=
EXTT7=
EXTT8=
PLAYORDER=
